<svg width="36" height="34" viewBox="0 0 36 34" fill="none" xmlns="http://www.w3.org/2000/svg">
<path d="M36 22.5574C35.887 25.9457 35.0363 28.6615 33.4479 30.7048C31.8592 32.7484 29.9719 33.7703 27.7859 33.7705C26.0054 33.7705 24.4449 32.7704 23.1043 30.7704C21.7632 28.7704 21.0928 25.6939 21.093 21.541C21.093 20.623 21.1155 19.7486 21.1606 18.918C21.2055 18.0876 21.2618 17.3007 21.3296 16.5574L22.5127 5.7705H14.7042C13.3522 19.4098 12.2423 27.5246 11.3747 30.1147C10.5069 32.7048 9.03653 33.9999 6.96345 34C6.02768 33.9777 5.13477 33.6149 4.46199 32.9836C4.07191 32.6483 3.76345 32.2333 3.55885 31.7683C3.35425 31.3034 3.25863 30.8002 3.27888 30.295C3.27888 29.29 4.09577 27.8856 5.72956 26.0819C7.36327 24.2786 8.27032 22.6338 8.4507 21.1476L10.4789 5.77051H7.2001C6.27576 5.77586 5.36607 5.99502 4.54658 6.40981C3.7923 6.74583 3.13597 7.25847 2.63667 7.90161L1.18311 9.99997H0C1.10392 6.67774 2.46168 4.18049 4.07328 2.5082C5.68419 0.836051 7.53771 -1.32093e-05 9.63382 1.56525e-10H35.4592V5.7705H26.7381C26.4676 8.39346 26.2592 11.0164 26.1127 13.6393C25.9659 16.2623 25.8927 18.8961 25.893 21.541C25.893 23.3335 26.3212 24.7871 27.1776 25.9016C28.0337 27.0164 29.1041 27.5738 30.3888 27.5737C31.1774 27.5737 32.0055 27.2622 32.8733 26.6393C33.2853 26.3589 33.6301 25.9955 33.8839 25.5739C34.1376 25.1523 34.2945 24.6826 34.3437 24.1967C34.4113 23.7161 34.462 23.3391 34.4958 23.0656C34.5296 22.7925 34.5465 22.6231 34.5466 22.5574H36Z" fill="#FFFAFA"/>
</svg>
