<svg width="122" height="113" viewBox="0 0 122 113" fill="none" xmlns="http://www.w3.org/2000/svg">
<path d="M78.5978 101.673L78.5978 101.673C82.9941 108.147 87.9749 111.203 93.5294 111.203C100.526 111.202 106.607 107.995 111.802 101.399C116.821 95.0266 119.625 86.57 120.137 75.9472H117.205C117.178 76.1868 117.145 76.4589 117.108 76.7598C117.108 76.7599 117.108 76.76 117.108 76.7601L116.115 76.6357C116.002 77.5445 115.831 78.7972 115.603 80.3939L78.5978 101.673ZM78.5978 101.673C74.2515 95.2751 71.9999 85.296 72.0004 71.5703C72.0004 68.5365 72.0759 65.65 72.2265 62.9103L72.2265 62.9101C72.3769 60.1655 72.5654 57.5667 72.7919 55.1134M78.5978 101.673L72.7919 55.1134M72.7919 55.1134L76.7733 19.283L76.8967 18.1726H75.7794H49.4954H48.5908L48.5004 19.0726C46.2255 41.7257 44.1552 59.7812 42.2898 73.2439C40.4196 86.7406 38.7657 95.5373 37.341 99.7352C35.9165 103.932 34.0284 106.984 31.7291 108.983C29.4514 110.964 26.7108 111.963 23.4514 111.966C20.544 111.894 17.7778 110.78 15.6989 108.855L15.6829 108.84L15.6663 108.826C14.4655 107.807 13.5192 106.549 12.8927 105.144C12.2663 103.738 11.9742 102.22 12.0361 100.696L12.037 100.676V100.656C12.037 99.2432 12.6259 97.4245 13.9608 95.1594C15.2871 92.9087 17.2994 90.3015 20.0228 87.3339C25.5795 81.2797 28.7919 75.628 29.4375 70.3903C29.4377 70.3885 29.438 70.3868 29.4382 70.3851L36.2638 19.305L36.4151 18.1726H35.2726L24.236 18.1726L24.2303 18.1726C20.9754 18.1912 17.7702 18.951 14.8791 20.3912C12.2024 21.5725 9.86852 23.3728 8.08922 25.635L8.07235 25.6564L8.05668 25.6788L3.46253 32.2251H1.40049C5.00435 21.9277 9.35991 14.2215 14.4265 9.03211L14.4266 9.03199C19.6816 3.64775 25.6703 0.999958 32.4281 1H118.358V18.1726H90.0022H89.1012L89.0076 19.0687C88.0956 27.7992 87.3927 36.5298 86.8988 45.2603M72.7919 55.1134L90.6923 86.6727C87.6401 82.7513 86.1578 77.6877 86.1578 71.5703M86.8988 45.2603C86.8988 45.2603 86.8988 45.2603 86.8988 45.2602L87.8972 45.3168L86.8988 45.2603ZM86.8988 45.2603C86.4036 53.9941 86.1566 62.7641 86.1578 71.5703M86.1578 71.5703L87.1578 71.5702L86.1578 71.5703ZM114.909 85.4905C115.837 83.9697 116.413 82.2731 116.596 80.516L90.6925 86.6729C93.7452 90.5962 97.6291 92.6143 102.291 92.6141C105.21 92.6141 108.193 91.4764 111.222 89.3324C112.722 88.3229 113.98 87.0132 114.909 85.4905Z" fill="#003F63" stroke="#FFFAFA" stroke-width="2"/>
</svg>
